# Blender 3.1.2
# www.blender.org
mtllib iphan_v1.mtl
o Room
v -6.494019 4.000000 0.000000
v -6.494019 0.000000 0.000000
v 0.005981 6.000000 0.000000
v 0.005981 0.000000 0.000000
v 6.505981 0.000000 0.000000
v 6.505981 4.000000 0.000000
v 6.505981 4.000000 -10.500000
v 6.505981 0.000000 -10.500000
v 6.505981 0.000000 -21.000000
v 6.505981 4.000000 -21.000000
v 0.005981 6.000000 -21.000000
v 0.005981 0.000000 -21.000000
v -6.494019 0.000000 -21.000000
v -6.494019 4.000000 -21.000000
v -6.094019 4.000000 -0.400000
v -6.094019 0.000000 -0.400000
v 0.005981 6.000000 -0.400000
v 0.005981 0.000000 -0.400000
v 6.105981 0.000000 -0.400000
v 6.105981 4.000000 -0.400000
v 6.105981 4.000000 -10.500000
v 6.105981 0.000000 -10.500000
v 6.105981 0.000000 -20.600000
v 6.105981 4.000000 -20.600000
v 0.005981 6.000000 -20.600000
v 0.005981 0.000000 -20.600000
v -6.094019 0.000000 -20.600000
v -6.094019 4.000000 -20.600000
vn -0.0000 -0.0000 1.0000
vn 1.0000 -0.0000 -0.0000
vn -0.0000 -0.0000 -1.0000
vn -1.0000 -0.0000 -0.0000
vn -0.2992 0.9424 -0.1496
vn -0.0000 -1.0000 -0.0000
vn 0.2992 0.9424 -0.1496
vn -0.0000 1.0000 -0.0000
vn 0.2992 0.9424 0.1496
vn -0.2992 0.9424 0.1496
vt 0.446299 0.999940
vt 0.446299 0.000060
vt 0.387483 0.999940
vt 0.387483 0.000060
vt 0.475708 0.904363
vt 0.387483 0.904363
vt 0.387483 0.808786
vt 0.446299 0.808786
vt 0.446299 0.654393
vt 0.387483 0.654393
vt 0.387483 0.500000
vt 0.446299 0.500000
vt 0.475708 0.404423
vt 0.387483 0.404423
vt 0.387483 0.308846
vt 0.446299 0.308846
vt 0.446299 0.999940
vt 0.446299 0.000060
vt 0.387483 0.999940
vt 0.387483 0.000060
vt 0.475708 0.904363
vt 0.387483 0.904363
vt 0.387483 0.808786
vt 0.446299 0.808786
vt 0.446299 0.654393
vt 0.387483 0.654393
vt 0.387483 0.500000
vt 0.446299 0.500000
vt 0.475708 0.404423
vt 0.387483 0.404423
vt 0.387483 0.308846
vt 0.446299 0.308846
s 0
usemtl Wall_material
f 1/1/1 2/3/1 4/6/1 3/5/1
f 3/5/1 4/6/1 5/7/1 6/8/1
f 5/7/2 8/10/2 7/9/2 6/8/2
f 7/9/2 8/10/2 9/11/2 10/12/2
f 9/11/3 12/14/3 11/13/3 10/12/3
f 11/13/3 12/14/3 13/15/3 14/16/3
f 13/15/4 2/4/4 1/2/4 14/16/4
f 15/17/3 17/21/3 18/22/3 16/19/3
f 17/21/3 20/24/3 19/23/3 18/22/3
f 19/23/4 20/24/4 21/25/4 22/26/4
f 21/25/4 24/28/4 23/27/4 22/26/4
f 23/27/1 24/28/1 25/29/1 26/30/1
f 25/29/1 28/32/1 27/31/1 26/30/1
f 27/31/2 28/32/2 15/18/2 16/20/2
f 1/1/5 3/5/5 17/21/5 15/17/5
f 5/7/6 4/6/6 18/22/6 19/23/6
f 3/5/7 6/8/7 20/24/7 17/21/7
f 6/8/8 7/9/8 21/25/8 20/24/8
f 8/10/6 5/7/6 19/23/6 22/26/6
f 9/11/6 8/10/6 22/26/6 23/27/6
f 7/9/8 10/12/8 24/28/8 21/25/8
f 10/12/9 11/13/9 25/29/9 24/28/9
f 12/14/6 9/11/6 23/27/6 26/30/6
f 13/15/6 12/14/6 26/30/6 27/31/6
f 11/13/10 14/16/10 28/32/10 25/29/10
f 4/6/6 2/3/6 16/19/6 18/22/6
f 14/16/8 1/2/8 15/18/8 28/32/8
f 2/4/6 13/15/6 27/31/6 16/20/6
o Floor
v -6.494019 0.000000 0.000000
v 0.005981 0.000000 0.000000
v 6.505981 0.000000 0.000000
v 6.505981 0.000000 -10.500000
v 6.505981 0.000000 -21.000000
v 0.005981 0.000000 -21.000000
v -6.494019 0.000000 -21.000000
vn -0.0000 1.0000 -0.0000
vt 0.000060 0.239819
vt 0.000060 0.119940
vt 0.000060 0.000060
vt 0.193711 0.000060
vt 0.387363 0.000060
vt 0.387363 0.119940
vt 0.387363 0.239819
s 0
usemtl Floor_material
f 29/33/11 30/34/11 31/35/11 32/36/11 33/37/11 34/38/11 35/39/11
o DoorFrame
v -0.752226 0.000000 0.066667
v -0.752226 0.000000 -0.133333
v -0.672226 0.000000 -0.133333
v -0.752226 2.200000 0.066667
v -0.752226 2.200000 -0.133333
v 0.747774 2.200000 -0.133333
v 0.747774 2.200000 0.066667
v 0.667774 2.120000 0.066667
v -0.672226 2.120000 -0.133333
v 0.667774 0.000000 0.066667
v 0.747774 0.000000 0.066667
v 0.747774 0.000000 -0.133333
v 0.667774 2.120000 -0.033333
v -0.672226 2.120000 -0.033333
v -0.672226 0.000000 -0.033333
v -0.652226 2.120000 -0.033333
v -0.652226 0.000000 -0.033333
v -0.652226 2.120000 -0.133333
v -0.652226 0.000000 -0.133333
v 0.667774 0.000000 -0.033333
v -0.672226 2.120000 0.066667
v -0.672226 0.000000 0.066667
v 0.667774 2.120000 -0.133333
v 0.667774 0.000000 -0.133333
v 0.647774 0.000000 -0.133333
v 0.647774 0.000000 -0.033333
v 0.647774 2.120000 -0.133333
v 0.647774 2.100000 -0.033333
v 0.647774 2.120000 -0.033333
v -0.652226 2.100000 -0.133333
v -0.652226 2.100000 -0.033333
v 0.647774 2.100000 -0.133333
vn -1.0000 -0.0000 -0.0000
vn -0.0000 1.0000 -0.0000
vn 1.0000 -0.0000 -0.0000
vn -0.0000 -0.0000 -1.0000
vn -0.0000 -1.0000 -0.0000
vn -0.0000 -0.0000 1.0000
s 0
usemtl Door_material
f 39//12 40//12 37//12 36//12
f 43//12 48//12 55//12 45//12
f 40//13 39//13 42//13 41//13
f 46//14 47//14 41//14 42//14
f 49//14 56//14 57//14 50//14
f 53//14 51//14 52//14 54//14
f 47//15 59//15 58//15 41//15
f 56//16 49//16 48//16 43//16
f 56//17 39//17 36//17 57//17
f 45//17 46//17 42//17 43//17
f 49//17 50//17 52//17 51//17
f 40//15 44//15 38//15 37//15
f 65//16 67//16 63//16 66//16
f 43//17 42//17 39//17 56//17
f 44//15 40//15 41//15 58//15
f 50//16 38//16 54//16 52//16
f 53//15 54//15 38//15 44//15
f 64//17 61//17 55//17 48//17
f 64//12 62//12 60//12 61//12
f 61//16 60//16 59//16 55//16
f 58//15 59//15 60//15 62//15
f 65//15 53//15 62//15 67//15
f 51//17 66//17 63//17 64//17
f 44//16 58//16 62//16
o Door
v -0.672226 0.004000 0.061100
v -0.672226 0.004000 -0.032900
v -0.006226 0.004000 -0.032900
v -0.006226 0.004000 0.061100
v -0.672226 2.114000 0.061100
v -0.672226 2.114000 -0.032900
v -0.006226 2.114000 -0.032900
v -0.006226 2.114000 0.061100
vn -1.0000 -0.0000 -0.0000
vn -0.0000 -0.0000 -1.0000
vn 1.0000 -0.0000 -0.0000
vn -0.0000 -0.0000 1.0000
vn -0.0000 -1.0000 -0.0000
vn -0.0000 1.0000 -0.0000
s 0
usemtl Door_material
f 72//18 73//18 69//18 68//18
f 73//19 74//19 70//19 69//19
f 74//20 75//20 71//20 70//20
f 75//21 72//21 68//21 71//21
f 68//22 69//22 70//22 71//22
f 75//23 74//23 73//23 72//23
o Door.001
v 0.001774 0.004000 0.061100
v 0.001774 0.004000 -0.032900
v 0.667774 0.004000 -0.032900
v 0.667774 0.004000 0.061100
v 0.001774 2.114000 0.061100
v 0.001774 2.114000 -0.032900
v 0.667774 2.114000 -0.032900
v 0.667774 2.114000 0.061100
vn -1.0000 -0.0000 -0.0000
vn -0.0000 -0.0000 -1.0000
vn 1.0000 -0.0000 -0.0000
vn -0.0000 -0.0000 1.0000
vn -0.0000 -1.0000 -0.0000
vn -0.0000 1.0000 -0.0000
s 0
usemtl Door_material
f 80//24 81//24 77//24 76//24
f 81//25 82//25 78//25 77//25
f 82//26 83//26 79//26 78//26
f 83//27 80//27 76//27 79//27
f 76//28 77//28 78//28 79//28
f 83//29 82//29 81//29 80//29
o CTRL_Hole
v -0.752226 -0.002000 0.300000
v -0.752226 -0.002000 -0.300000
v 0.747774 -0.002000 -0.300000
v 0.747774 -0.002000 0.300000
v -0.752226 2.198000 0.300000
v -0.752226 2.198000 -0.300000
v 0.747774 2.198000 -0.300000
v 0.747774 2.198000 0.300000
vn -0.0000 -1.0000 -0.0000
vn -1.0000 -0.0000 -0.0000
vn -0.0000 -0.0000 -1.0000
vn -0.0000 -0.0000 1.0000
vn 1.0000 -0.0000 -0.0000
vn -0.0000 1.0000 -0.0000
s 0
usemtl hidden_material
f 84//30 85//30 86//30 87//30
f 84//31 88//31 89//31 85//31
f 85//32 89//32 90//32 86//32
f 87//33 91//33 88//33 84//33
f 86//34 90//34 91//34 87//34
f 89//35 88//35 91//35 90//35
o CTRL_Baseboard
v -0.752226 -0.100000 0.216667
v -0.752226 -0.100000 -0.183333
v 0.747774 -0.100000 -0.183333
v 0.747774 -0.100000 0.216667
v -0.752226 0.300000 0.216667
v -0.752226 0.300000 -0.183333
v 0.747774 0.300000 -0.183333
v 0.747774 0.300000 0.216667
vn -1.0000 -0.0000 -0.0000
vn 1.0000 -0.0000 -0.0000
s 0
usemtl hidden_material
f 92//36 96//36 97//36 93//36
f 94//37 98//37 99//37 95//37
o Art_Display
v -0.383672 -0.001270 -13.170536
v -0.383672 0.439260 -13.170536
v 0.056800 -0.001270 -13.177703
v 0.056800 0.439260 -13.177703
v -0.371698 -0.001270 -12.434638
v -0.371698 0.439260 -12.434638
v 0.068773 -0.001270 -12.441805
v 0.068773 0.439260 -12.441805
v -0.190749 0.139793 -13.723412
v -0.190749 1.998879 -13.723412
v -0.151224 0.139793 -13.724054
v -0.151224 1.998879 -13.724054
v -0.160505 0.139793 -11.864572
v -0.160505 1.998879 -11.864572
v -0.120979 0.139793 -11.865214
v -0.120979 1.998879 -11.865214
vn -0.0163 -0.0000 -0.9999
vn 0.9999 -0.0000 -0.0163
vn 0.0163 -0.0000 0.9999
vn -0.9999 -0.0000 0.0163
vn -0.0000 -1.0000 -0.0000
vn -0.0000 1.0000 -0.0000
vt 0.375000 0.000000
vt 0.375000 1.000000
vt 0.125000 0.750000
vt 0.625000 0.000000
vt 0.625000 1.000000
vt 0.875000 0.750000
vt 0.375000 0.250000
vt 0.125000 0.500000
vt 0.625000 0.250000
vt 0.875000 0.500000
vt 0.375000 0.750000
vt 0.625000 0.750000
vt 0.375000 0.500000
vt 0.625000 0.500000
vt 0.375000 0.000000
vt 0.375000 1.000000
vt 0.125000 0.750000
vt 0.625000 0.000000
vt 0.625000 1.000000
vt 0.875000 0.750000
vt 0.375000 0.250000
vt 0.125000 0.500000
vt 0.625000 0.250000
vt 0.875000 0.500000
vt 0.375000 0.750000
vt 0.625000 0.750000
vt 0.375000 0.500000
vt 0.625000 0.500000
s 0
f 100/40/38 101/43/38 103/48/38 102/46/38
f 102/46/39 103/48/39 107/53/39 106/52/39
f 106/52/40 107/53/40 105/51/40 104/50/40
f 104/50/41 105/51/41 101/44/41 100/41/41
f 102/47/42 106/52/42 104/50/42 100/42/42
f 107/53/43 103/49/43 101/45/43 105/51/43
f 108/54/38 109/57/38 111/62/38 110/60/38
f 110/60/39 111/62/39 115/67/39 114/66/39
f 114/66/40 115/67/40 113/65/40 112/64/40
f 112/64/41 113/65/41 109/58/41 108/55/41
f 110/61/42 114/66/42 112/64/42 108/56/42
f 115/67/43 111/63/43 109/59/43 113/65/43
o Quadro
v -0.181258 1.362791 -12.142461
v -0.181258 1.604840 -12.142461
v -0.169157 1.362791 -12.142657
v -0.169157 1.604840 -12.142657
v -0.177320 1.362791 -11.900443
v -0.177320 1.604840 -11.900443
v -0.165219 1.362791 -11.900640
v -0.165219 1.604840 -11.900640
vn -0.0163 -0.0000 -0.9999
vn 0.9999 -0.0000 -0.0163
vn 0.0163 -0.0000 0.9999
vn -0.9999 -0.0000 0.0163
vn -0.0000 -1.0000 -0.0000
vn -0.0000 1.0000 -0.0000
vt 0.375000 0.000000
vt 0.375000 1.000000
vt 0.125000 0.750000
vt 0.625000 0.000000
vt 0.625000 1.000000
vt 0.875000 0.750000
vt 0.375000 0.250000
vt 0.125000 0.500000
vt 0.625000 0.250000
vt 0.875000 0.500000
vt 0.375000 0.750000
vt 0.625000 0.750000
vt 0.375000 0.500000
vt 0.625000 0.500000
s 0
f 116/68/44 117/71/44 119/76/44 118/74/44
f 118/74/45 119/76/45 123/81/45 122/80/45
f 122/80/46 123/81/46 121/79/46 120/78/46
f 120/78/47 121/79/47 117/72/47 116/69/47
f 118/75/48 122/80/48 120/78/48 116/70/48
f 123/81/49 119/77/49 117/73/49 121/79/49
o Bench
v -2.039487 0.312805 -11.418681
v -2.039487 0.387958 -11.418681
v -2.039487 0.312805 -14.112954
v -2.039487 0.387958 -14.112954
v -1.558823 0.312805 -11.418681
v -1.558823 0.387958 -11.418681
v -1.558823 0.312805 -14.112954
v -1.558823 0.387958 -14.112954
v -1.948097 0.318697 -12.800416
v -1.948097 -0.001444 -12.800416
v -1.948097 0.318697 -12.749193
v -1.948097 -0.001444 -12.749193
v -1.999319 0.318697 -12.800416
v -1.999319 -0.001444 -12.800416
v -1.999319 0.318697 -12.749193
v -1.999319 -0.001444 -12.749193
v -1.599179 0.318697 -12.800416
v -1.599179 -0.001444 -12.800416
v -1.599179 0.318697 -12.749193
v -1.599179 -0.001444 -12.749193
v -1.650402 0.318697 -12.800416
v -1.650402 -0.001444 -12.800416
v -1.650402 0.318697 -12.749193
v -1.650402 -0.001444 -12.749193
v -1.640091 0.064502 -12.800416
v -1.960232 0.064502 -12.800416
v -1.640091 0.064502 -12.749193
v -1.960232 0.064502 -12.749193
v -1.640091 0.115725 -12.800416
v -1.960232 0.115725 -12.800416
v -1.640091 0.115725 -12.749193
v -1.960232 0.115725 -12.749193
v -1.640091 0.212682 -12.800416
v -1.960232 0.212682 -12.800416
v -1.640091 0.212682 -12.749193
v -1.960232 0.212682 -12.749193
v -1.640091 0.263904 -12.800416
v -1.960232 0.263904 -12.800416
v -1.640091 0.263904 -12.749193
v -1.960232 0.263904 -12.749193
v -1.640091 0.212682 -11.718472
v -1.960232 0.212682 -11.718472
v -1.640091 0.212682 -11.667249
v -1.960232 0.212682 -11.667249
v -1.640091 0.263904 -11.718472
v -1.960232 0.263904 -11.718472
v -1.640091 0.263904 -11.667249
v -1.960232 0.263904 -11.667249
v -1.640091 0.064502 -11.718472
v -1.960232 0.064502 -11.718472
v -1.640091 0.064502 -11.667249
v -1.960232 0.064502 -11.667249
v -1.640091 0.115725 -11.718472
v -1.960232 0.115725 -11.718472
v -1.640091 0.115725 -11.667249
v -1.960232 0.115725 -11.667249
v -1.599179 0.318697 -11.718472
v -1.599179 -0.001444 -11.718472
v -1.599179 0.318697 -11.667249
v -1.599179 -0.001444 -11.667249
v -1.650402 0.318697 -11.718472
v -1.650402 -0.001444 -11.718472
v -1.650402 0.318697 -11.667249
v -1.650402 -0.001444 -11.667249
v -1.948097 0.318697 -11.718472
v -1.948097 -0.001444 -11.718472
v -1.948097 0.318697 -11.667249
v -1.948097 -0.001444 -11.667249
v -1.999319 0.318697 -11.718472
v -1.999319 -0.001444 -11.718472
v -1.999319 0.318697 -11.667249
v -1.999319 -0.001444 -11.667249
v -1.640091 0.212682 -13.857270
v -1.960232 0.212682 -13.857270
v -1.640091 0.212682 -13.806047
v -1.960232 0.212682 -13.806047
v -1.640091 0.263904 -13.857270
v -1.960232 0.263904 -13.857270
v -1.640091 0.263904 -13.806047
v -1.960232 0.263904 -13.806047
v -1.640091 0.064502 -13.857270
v -1.960232 0.064502 -13.857270
v -1.640091 0.064502 -13.806047
v -1.960232 0.064502 -13.806047
v -1.640091 0.115725 -13.857270
v -1.960232 0.115725 -13.857270
v -1.640091 0.115725 -13.806047
v -1.960232 0.115725 -13.806047
v -1.599179 0.318697 -13.857270
v -1.599179 -0.001444 -13.857270
v -1.599179 0.318697 -13.806047
v -1.599179 -0.001444 -13.806047
v -1.650402 0.318697 -13.857270
v -1.650402 -0.001444 -13.857270
v -1.650402 0.318697 -13.806047
v -1.650402 -0.001444 -13.806047
v -1.948097 0.318697 -13.857270
v -1.948097 -0.001444 -13.857270
v -1.948097 0.318697 -13.806047
v -1.948097 -0.001444 -13.806047
v -1.999319 0.318697 -13.857270
v -1.999319 -0.001444 -13.857270
v -1.999319 0.318697 -13.806047
v -1.999319 -0.001444 -13.806047
vn -1.0000 -0.0000 -0.0000
vn -0.0000 -0.0000 -1.0000
vn 1.0000 -0.0000 -0.0000
vn -0.0000 -0.0000 1.0000
vn -0.0000 -1.0000 -0.0000
vn -0.0000 1.0000 -0.0000
vt 0.375000 0.000000
vt 0.375000 1.000000
vt 0.125000 0.750000
vt 0.625000 0.000000
vt 0.625000 1.000000
vt 0.875000 0.750000
vt 0.375000 0.250000
vt 0.125000 0.500000
vt 0.625000 0.250000
vt 0.875000 0.500000
vt 0.375000 0.750000
vt 0.625000 0.750000
vt 0.375000 0.500000
vt 0.625000 0.500000
vt 0.375000 0.000000
vt 0.375000 1.000000
vt 0.125000 0.750000
vt 0.625000 0.000000
vt 0.625000 1.000000
vt 0.875000 0.750000
vt 0.375000 0.250000
vt 0.125000 0.500000
vt 0.625000 0.250000
vt 0.875000 0.500000
vt 0.375000 0.750000
vt 0.625000 0.750000
vt 0.375000 0.500000
vt 0.625000 0.500000
vt 0.375000 0.000000
vt 0.375000 1.000000
vt 0.125000 0.750000
vt 0.625000 0.000000
vt 0.625000 1.000000
vt 0.875000 0.750000
vt 0.375000 0.250000
vt 0.125000 0.500000
vt 0.625000 0.250000
vt 0.875000 0.500000
vt 0.375000 0.750000
vt 0.625000 0.750000
vt 0.375000 0.500000
vt 0.625000 0.500000
vt 0.375000 0.000000
vt 0.375000 1.000000
vt 0.125000 0.750000
vt 0.625000 0.000000
vt 0.625000 1.000000
vt 0.875000 0.750000
vt 0.375000 0.250000
vt 0.125000 0.500000
vt 0.625000 0.250000
vt 0.875000 0.500000
vt 0.375000 0.750000
vt 0.625000 0.750000
vt 0.375000 0.500000
vt 0.625000 0.500000
vt 0.375000 0.000000
vt 0.375000 1.000000
vt 0.125000 0.750000
vt 0.625000 0.000000
vt 0.625000 1.000000
vt 0.875000 0.750000
vt 0.375000 0.250000
vt 0.125000 0.500000
vt 0.625000 0.250000
vt 0.875000 0.500000
vt 0.375000 0.750000
vt 0.625000 0.750000
vt 0.375000 0.500000
vt 0.625000 0.500000
vt 0.375000 0.000000
vt 0.375000 1.000000
vt 0.125000 0.750000
vt 0.625000 0.000000
vt 0.625000 1.000000
vt 0.875000 0.750000
vt 0.375000 0.250000
vt 0.125000 0.500000
vt 0.625000 0.250000
vt 0.875000 0.500000
vt 0.375000 0.750000
vt 0.625000 0.750000
vt 0.375000 0.500000
vt 0.625000 0.500000
vt 0.375000 0.000000
vt 0.375000 1.000000
vt 0.125000 0.750000
vt 0.625000 0.000000
vt 0.625000 1.000000
vt 0.875000 0.750000
vt 0.375000 0.250000
vt 0.125000 0.500000
vt 0.625000 0.250000
vt 0.875000 0.500000
vt 0.375000 0.750000
vt 0.625000 0.750000
vt 0.375000 0.500000
vt 0.625000 0.500000
vt 0.375000 0.000000
vt 0.375000 1.000000
vt 0.125000 0.750000
vt 0.625000 0.000000
vt 0.625000 1.000000
vt 0.875000 0.750000
vt 0.375000 0.250000
vt 0.125000 0.500000
vt 0.625000 0.250000
vt 0.875000 0.500000
vt 0.375000 0.750000
vt 0.625000 0.750000
vt 0.375000 0.500000
vt 0.625000 0.500000
vt 0.375000 0.000000
vt 0.375000 1.000000
vt 0.125000 0.750000
vt 0.625000 0.000000
vt 0.625000 1.000000
vt 0.875000 0.750000
vt 0.375000 0.250000
vt 0.125000 0.500000
vt 0.625000 0.250000
vt 0.875000 0.500000
vt 0.375000 0.750000
vt 0.625000 0.750000
vt 0.375000 0.500000
vt 0.625000 0.500000
vt 0.375000 0.000000
vt 0.375000 1.000000
vt 0.125000 0.750000
vt 0.625000 0.000000
vt 0.625000 1.000000
vt 0.875000 0.750000
vt 0.375000 0.250000
vt 0.125000 0.500000
vt 0.625000 0.250000
vt 0.875000 0.500000
vt 0.375000 0.750000
vt 0.625000 0.750000
vt 0.375000 0.500000
vt 0.625000 0.500000
vt 0.375000 0.000000
vt 0.375000 1.000000
vt 0.125000 0.750000
vt 0.625000 0.000000
vt 0.625000 1.000000
vt 0.875000 0.750000
vt 0.375000 0.250000
vt 0.125000 0.500000
vt 0.625000 0.250000
vt 0.875000 0.500000
vt 0.375000 0.750000
vt 0.625000 0.750000
vt 0.375000 0.500000
vt 0.625000 0.500000
vt 0.375000 0.000000
vt 0.375000 1.000000
vt 0.125000 0.750000
vt 0.625000 0.000000
vt 0.625000 1.000000
vt 0.875000 0.750000
vt 0.375000 0.250000
vt 0.125000 0.500000
vt 0.625000 0.250000
vt 0.875000 0.500000
vt 0.375000 0.750000
vt 0.625000 0.750000
vt 0.375000 0.500000
vt 0.625000 0.500000
vt 0.375000 0.000000
vt 0.375000 1.000000
vt 0.125000 0.750000
vt 0.625000 0.000000
vt 0.625000 1.000000
vt 0.875000 0.750000
vt 0.375000 0.250000
vt 0.125000 0.500000
vt 0.625000 0.250000
vt 0.875000 0.500000
vt 0.375000 0.750000
vt 0.625000 0.750000
vt 0.375000 0.500000
vt 0.625000 0.500000
s 0
f 124/82/50 125/85/50 127/90/50 126/88/50
f 126/88/51 127/90/51 131/95/51 130/94/51
f 130/94/52 131/95/52 129/93/52 128/92/52
f 128/92/53 129/93/53 125/86/53 124/83/53
f 126/89/54 130/94/54 128/92/54 124/84/54
f 131/95/55 127/91/55 125/87/55 129/93/55
f 132/96/50 133/99/50 135/104/50 134/102/50
f 134/102/51 135/104/51 139/109/51 138/108/51
f 138/108/52 139/109/52 137/107/52 136/106/52
f 136/106/53 137/107/53 133/100/53 132/97/53
f 134/103/54 138/108/54 136/106/54 132/98/54
f 139/109/55 135/105/55 133/101/55 137/107/55
f 140/110/50 141/113/50 143/118/50 142/116/50
f 142/116/51 143/118/51 147/123/51 146/122/51
f 146/122/52 147/123/52 145/121/52 144/120/52
f 144/120/53 145/121/53 141/114/53 140/111/53
f 142/117/54 146/122/54 144/120/54 140/112/54
f 147/123/55 143/119/55 141/115/55 145/121/55
f 148/124/55 149/127/55 151/132/55 150/130/55
f 150/130/51 151/132/51 155/137/51 154/136/51
f 154/136/54 155/137/54 153/135/54 152/134/54
f 152/134/53 153/135/53 149/128/53 148/125/53
f 150/131/50 154/136/50 152/134/50 148/126/50
f 155/137/52 151/133/52 149/129/52 153/135/52
f 156/138/55 157/141/55 159/146/55 158/144/55
f 158/144/51 159/146/51 163/151/51 162/150/51
f 162/150/54 163/151/54 161/149/54 160/148/54
f 160/148/53 161/149/53 157/142/53 156/139/53
f 158/145/50 162/150/50 160/148/50 156/140/50
f 163/151/52 159/147/52 157/143/52 161/149/52
f 164/152/55 165/155/55 167/160/55 166/158/55
f 166/158/51 167/160/51 171/165/51 170/164/51
f 170/164/54 171/165/54 169/163/54 168/162/54
f 168/162/53 169/163/53 165/156/53 164/153/53
f 166/159/50 170/164/50 168/162/50 164/154/50
f 171/165/52 167/161/52 165/157/52 169/163/52
f 172/166/55 173/169/55 175/174/55 174/172/55
f 174/172/51 175/174/51 179/179/51 178/178/51
f 178/178/54 179/179/54 177/177/54 176/176/54
f 176/176/53 177/177/53 173/170/53 172/167/53
f 174/173/50 178/178/50 176/176/50 172/168/50
f 179/179/52 175/175/52 173/171/52 177/177/52
f 180/180/50 181/183/50 183/188/50 182/186/50
f 182/186/51 183/188/51 187/193/51 186/192/51
f 186/192/52 187/193/52 185/191/52 184/190/52
f 184/190/53 185/191/53 181/184/53 180/181/53
f 182/187/54 186/192/54 184/190/54 180/182/54
f 187/193/55 183/189/55 181/185/55 185/191/55
f 188/194/50 189/197/50 191/202/50 190/200/50
f 190/200/51 191/202/51 195/207/51 194/206/51
f 194/206/52 195/207/52 193/205/52 192/204/52
f 192/204/53 193/205/53 189/198/53 188/195/53
f 190/201/54 194/206/54 192/204/54 188/196/54
f 195/207/55 191/203/55 189/199/55 193/205/55
f 196/208/55 197/211/55 199/216/55 198/214/55
f 198/214/51 199/216/51 203/221/51 202/220/51
f 202/220/54 203/221/54 201/219/54 200/218/54
f 200/218/53 201/219/53 197/212/53 196/209/53
f 198/215/50 202/220/50 200/218/50 196/210/50
f 203/221/52 199/217/52 197/213/52 201/219/52
f 204/222/55 205/225/55 207/230/55 206/228/55
f 206/228/51 207/230/51 211/235/51 210/234/51
f 210/234/54 211/235/54 209/233/54 208/232/54
f 208/232/53 209/233/53 205/226/53 204/223/53
f 206/229/50 210/234/50 208/232/50 204/224/50
f 211/235/52 207/231/52 205/227/52 209/233/52
f 212/236/50 213/239/50 215/244/50 214/242/50
f 214/242/51 215/244/51 219/249/51 218/248/51
f 218/248/52 219/249/52 217/247/52 216/246/52
f 216/246/53 217/247/53 213/240/53 212/237/53
f 214/243/54 218/248/54 216/246/54 212/238/54
f 219/249/55 215/245/55 213/241/55 217/247/55
f 220/250/50 221/253/50 223/258/50 222/256/50
f 222/256/51 223/258/51 227/263/51 226/262/51
f 226/262/52 227/263/52 225/261/52 224/260/52
f 224/260/53 225/261/53 221/254/53 220/251/53
f 222/257/54 226/262/54 224/260/54 220/252/54
f 227/263/55 223/259/55 221/255/55 225/261/55
o Room.001
v -6.097420 2.404361 -1.950922
v -6.097420 0.004361 -1.950922
v 2.902580 2.404361 -1.950922
v 2.902580 0.004361 -1.950922
v -6.097420 2.404361 -2.150922
v -6.097420 0.004361 -2.150922
v 2.902580 2.404361 -2.150922
v 2.902580 0.004361 -2.150922
vn -0.0000 -0.0000 1.0000
vn -0.0000 -0.0000 -1.0000
vn -1.0000 -0.0000 -0.0000
vn -0.0000 1.0000 -0.0000
vn 1.0000 -0.0000 -0.0000
vn -0.0000 -1.0000 -0.0000
vt 0.982659 0.000064
vt 0.982659 0.262089
vt 0.000064 0.000064
vt 0.000064 0.262089
vt 0.982659 0.000064
vt 0.982659 0.262089
vt 0.000064 0.000064
vt 0.000064 0.262089
s 0
usemtl Wall_material
f 228/264/56 229/265/56 231/267/56 230/266/56
f 232/268/57 234/270/57 235/271/57 233/269/57
f 229/265/58 228/264/58 232/268/58 233/269/58
f 228/264/59 230/266/59 234/270/59 232/268/59
f 230/266/60 231/267/60 235/271/60 234/270/60
f 231/267/61 229/265/61 233/269/61 235/271/61
o Baseboard
v -6.097420 0.124361 -1.950922
v -6.097420 0.004361 -1.950922
v 2.902580 0.124361 -1.950922
v 2.902580 0.004361 -1.950922
v -6.097420 0.124361 -1.935922
v -6.097420 0.004361 -1.935922
v 2.902580 0.124361 -1.935922
v 2.902580 0.004361 -1.935922
vn -0.0000 -0.0000 -1.0000
vn -0.0000 -0.0000 1.0000
vn -1.0000 -0.0000 -0.0000
vn -0.0000 1.0000 -0.0000
vn 1.0000 -0.0000 -0.0000
vn -0.0000 -1.0000 -0.0000
vt 0.999936 0.000064
vt 0.982786 0.000126
vt 0.999936 0.982659
vt 0.982786 0.982721
vt 0.999936 0.000064
vt 0.982786 0.000126
vt 0.999936 0.982659
vt 0.982786 0.982721
s 0
usemtl Baseboard_material
f 236/272/62 238/274/62 239/275/62 237/273/62
f 240/276/63 241/277/63 243/279/63 242/278/63
f 236/272/64 237/273/64 241/277/64 240/276/64
f 238/274/65 236/272/65 240/276/65 242/278/65
f 239/275/66 238/274/66 242/278/66 243/279/66
f 237/273/67 239/275/67 243/279/67 241/277/67
